<?xml version="1.0" standalone="no"?>
<!DOCTYPE svg PUBLIC "-//W3C//DTD SVG 20010904//EN"
 "http://www.w3.org/TR/2001/REC-SVG-20010904/DTD/svg10.dtd">
<svg version="1.0" xmlns="http://www.w3.org/2000/svg"
 width="396.000000pt" height="396.000000pt" viewBox="0 0 396.000000 396.000000"
 preserveAspectRatio="xMidYMid meet">
<metadata>
Created by potrace 1.11, written by Peter Selinger 2001-2013
</metadata>
<g transform="translate(0.000000,396.000000) scale(0.100000,-0.100000)"
fill="#000000" stroke="none">
<path d="M0 3830 l0 -130 1698 0 1697 0 71 36 c62 31 80 36 144 36 64 0 82 -5
144 -36 61 -31 81 -36 139 -36 l67 0 0 130 0 130 -1980 0 -1980 0 0 -130z"/>
<path d="M0 2735 l0 -205 505 0 c319 0 505 -4 505 -10 0 -5 -9 -25 -19 -44
-48 -84 -66 -173 -66 -321 1 -127 3 -147 29 -220 28 -82 134 -292 214 -425 98
-163 212 -314 316 -415 122 -120 287 -208 406 -217 27 -2 36 -8 38 -25 3 -19
-3 -22 -45 -28 -208 -29 -480 -129 -643 -237 -81 -54 -192 -159 -245 -231 -37
-51 -44 -56 -95 -66 -119 -24 -242 -116 -295 -221 -32 -63 -31 -70 4 -70 25 0
33 7 50 44 24 48 121 146 145 146 9 0 16 -9 16 -20 0 -23 -33 -93 -61 -129
-11 -13 -19 -28 -19 -32 0 -5 61 -9 135 -9 111 0 135 3 135 14 0 45 56 183
100 248 53 79 98 116 179 148 65 25 97 26 111 1 12 -23 6 -41 -51 -155 -38
-75 -109 -238 -109 -250 0 -3 33 -6 73 -6 l74 0 32 46 c33 45 33 45 45 22 16
-32 40 -29 44 5 3 22 -1 27 -19 27 l-22 0 24 26 c37 39 131 91 212 116 105 32
282 32 387 -1 142 -44 220 -97 280 -192 l32 -49 650 0 651 0 -7 43 c-9 55 -48
121 -106 177 -48 46 -154 110 -185 110 -9 0 -69 51 -134 113 -279 268 -523
373 -937 403 l-92 6 -6 37 c-13 80 -10 87 54 131 82 56 254 227 327 325 191
258 302 530 319 785 7 100 -20 252 -60 345 -15 32 -26 58 -26 59 0 0 250 0
555 -2 l555 -2 0 205 0 205 -1980 0 -1980 0 0 -205z m2132 45 c123 -10 256
-36 348 -68 66 -23 156 -68 165 -82 8 -13 -85 -120 -106 -120 -8 0 -42 10 -75
23 -247 96 -585 114 -944 50 -161 -29 -224 -44 -315 -76 -31 -11 -40 -19 -40
-38 0 -13 -14 -53 -31 -89 -44 -92 -54 -125 -61 -205 -12 -148 50 -297 244
-586 168 -250 236 -371 267 -476 16 -53 -32 -26 -53 31 -8 18 -16 26 -26 22
-9 -3 -35 18 -71 57 -154 170 -350 504 -424 724 -31 93 -32 105 -30 292 1 62
31 149 66 190 13 16 24 34 24 40 0 16 79 93 132 129 131 90 386 162 642 181
146 12 159 12 288 1z m-295 -426 c-3 -3 -12 -4 -19 -1 -8 3 -5 6 6 6 11 1 17
-2 13 -5z m270 -80 c47 -27 83 -78 83 -118 0 -37 -46 -82 -100 -96 -102 -28
-470 -80 -561 -80 -122 0 -174 31 -201 123 -12 40 -12 40 29 76 75 67 285 117
523 124 127 4 182 -3 227 -29z m760 -196 c-3 -8 -6 -5 -6 6 -1 11 2 17 5 13 3
-3 4 -12 1 -19z m-70 -20 c-3 -7 -5 -2 -5 12 0 14 2 19 5 13 2 -7 2 -19 0 -25z
m-1396 -358 c24 -13 25 -40 1 -40 -21 0 -42 18 -42 37 0 16 15 17 41 3z"/>
<path d="M1110 2470 c0 -5 7 -10 15 -10 8 0 15 5 15 10 0 6 -7 10 -15 10 -8 0
-15 -4 -15 -10z"/>
<path d="M1032 2368 c-17 -17 -15 -45 5 -52 24 -10 51 20 37 41 -14 22 -27 26
-42 11z"/>
<path d="M1937 243 c-10 -9 -8 -41 2 -47 16 -10 41 5 41 24 0 10 -7 21 -16 24
-19 7 -19 7 -27 -1z"/>
<path d="M1642 188 c-16 -16 -15 -23 3 -41 13 -14 10 -18 -29 -41 -24 -14 -58
-42 -77 -63 l-33 -38 58 -3 c42 -2 66 2 89 16 149 86 313 87 439 0 19 -13 44
-18 100 -18 l73 1 -51 48 c-114 106 -306 157 -449 120 -81 -21 -88 -22 -81
-11 8 14 -3 42 -18 42 -7 0 -17 -5 -24 -12z"/>
<path d="M2232 121 c-20 -12 -10 -46 13 -46 14 0 20 7 20 24 0 27 -13 35 -33
22z"/>
</g>
</svg>
